<mxfile host="app.diagrams.net" agent="Mozilla/5.0 (X11; Linux x86_64; rv:139.0) Gecko/20100101 Firefox/139.0" version="28.0.7">
  <diagram name="Page-1" id="J2xbpSsCBj30RLXRAprA">
    <mxGraphModel dx="690" dy="658" grid="1" gridSize="10" guides="1" tooltips="1" connect="1" arrows="1" fold="1" page="1" pageScale="1" pageWidth="827" pageHeight="1169" math="0" shadow="0">
      <root>
        <mxCell id="0" />
        <mxCell id="1" parent="0" />
        <mxCell id="sUiPD8prjaH3CzhAGNYn-28" value="" style="verticalLabelPosition=bottom;verticalAlign=top;html=1;shape=mxgraph.basic.orthogonal_triangle;fillColor=#b0e3e6;strokeColor=none;fontFamily=Garamond;" parent="1" vertex="1">
          <mxGeometry x="107" y="145" width="411" height="67" as="geometry" />
        </mxCell>
        <mxCell id="0T9gvnzy7SkM7xsGGsrt-27" value="" style="shape=trapezoid;perimeter=trapezoidPerimeter;whiteSpace=wrap;html=1;fixedSize=1;rotation=90;size=55;fillColor=none;strokeColor=light-dark(#000000,#00FF00);fontFamily=Garamond;" parent="1" vertex="1">
          <mxGeometry x="97.5" y="87.5" width="195" height="250" as="geometry" />
        </mxCell>
        <mxCell id="0T9gvnzy7SkM7xsGGsrt-31" style="edgeStyle=orthogonalEdgeStyle;rounded=0;orthogonalLoop=1;jettySize=auto;html=1;exitX=0.502;exitY=1.05;exitDx=0;exitDy=0;exitPerimeter=0;strokeColor=light-dark(#000000,#00FF00);fontFamily=Garamond;" parent="1" source="0T9gvnzy7SkM7xsGGsrt-28" target="0T9gvnzy7SkM7xsGGsrt-27" edge="1">
          <mxGeometry relative="1" as="geometry">
            <mxPoint x="200" y="115" as="sourcePoint" />
          </mxGeometry>
        </mxCell>
        <mxCell id="0T9gvnzy7SkM7xsGGsrt-28" value="&lt;span style=&quot;&quot;&gt;Frustum&lt;/span&gt;" style="text;html=1;align=center;verticalAlign=middle;whiteSpace=wrap;rounded=0;fontColor=light-dark(#000000,#00FF00);fontFamily=Garamond;" parent="1" vertex="1">
          <mxGeometry x="165" y="80" width="60" height="30" as="geometry" />
        </mxCell>
        <mxCell id="0T9gvnzy7SkM7xsGGsrt-36" value="" style="shape=mxgraph.signs.healthcare.eye;html=1;pointerEvents=1;fillColor=#000000;strokeColor=none;verticalLabelPosition=bottom;verticalAlign=top;align=center;fillStyle=solid;fontFamily=Garamond;" parent="1" vertex="1">
          <mxGeometry x="540" y="202.5" width="39" height="20" as="geometry" />
        </mxCell>
        <mxCell id="0T9gvnzy7SkM7xsGGsrt-10" value="" style="verticalLabelPosition=bottom;html=1;verticalAlign=top;align=center;shape=mxgraph.floorplan.flat_tv;rotation=-90;fontFamily=Garamond;" parent="1" vertex="1">
          <mxGeometry x="256" y="207.29999999999995" width="120" height="10" as="geometry" />
        </mxCell>
        <mxCell id="0T9gvnzy7SkM7xsGGsrt-43" value="Projection Plane" style="text;html=1;align=center;verticalAlign=middle;whiteSpace=wrap;rounded=0;fontFamily=Garamond;" parent="1" vertex="1">
          <mxGeometry x="338" y="300" width="110" height="20" as="geometry" />
        </mxCell>
        <mxCell id="0T9gvnzy7SkM7xsGGsrt-44" style="edgeStyle=orthogonalEdgeStyle;rounded=0;orthogonalLoop=1;jettySize=auto;html=1;fontFamily=Garamond;" parent="1" source="0T9gvnzy7SkM7xsGGsrt-43" edge="1">
          <mxGeometry relative="1" as="geometry">
            <mxPoint x="318" y="280" as="targetPoint" />
          </mxGeometry>
        </mxCell>
        <mxCell id="0T9gvnzy7SkM7xsGGsrt-32" value="" style="endArrow=none;html=1;rounded=0;startArrow=oval;startFill=1;fontFamily=Garamond;" parent="1" edge="1">
          <mxGeometry width="50" height="50" relative="1" as="geometry">
            <mxPoint x="70.5" y="212.29999999999995" as="sourcePoint" />
            <mxPoint x="319.5" y="212.29999999999995" as="targetPoint" />
          </mxGeometry>
        </mxCell>
        <mxCell id="sUiPD8prjaH3CzhAGNYn-8" value="" style="endArrow=none;html=1;rounded=0;strokeColor=light-dark(#000000,#FF3333);fontFamily=Garamond;" parent="1" target="sUiPD8prjaH3CzhAGNYn-1" edge="1">
          <mxGeometry width="50" height="50" relative="1" as="geometry">
            <mxPoint x="108" y="211.79999999999995" as="sourcePoint" />
            <mxPoint x="250" y="140" as="targetPoint" />
          </mxGeometry>
        </mxCell>
        <mxCell id="sUiPD8prjaH3CzhAGNYn-15" value="" style="endArrow=none;dashed=1;html=1;rounded=0;entryX=1;entryY=0.5;entryDx=0;entryDy=0;strokeColor=light-dark(#000000,#FF3333);fontFamily=Garamond;" parent="1" source="sUiPD8prjaH3CzhAGNYn-1" edge="1">
          <mxGeometry width="50" height="50" relative="1" as="geometry">
            <mxPoint x="310" y="200" as="sourcePoint" />
            <mxPoint x="527.5" y="212.5" as="targetPoint" />
          </mxGeometry>
        </mxCell>
        <mxCell id="sUiPD8prjaH3CzhAGNYn-17" value="" style="endArrow=none;html=1;rounded=0;entryX=0.383;entryY=0.558;entryDx=0;entryDy=0;entryPerimeter=0;fillColor=#fad7ac;strokeColor=light-dark(#000000,#FF3333);fontFamily=Garamond;" parent="1" source="sUiPD8prjaH3CzhAGNYn-1" target="sUiPD8prjaH3CzhAGNYn-3" edge="1">
          <mxGeometry width="50" height="50" relative="1" as="geometry">
            <mxPoint x="240" y="210" as="sourcePoint" />
            <mxPoint x="290" y="160" as="targetPoint" />
          </mxGeometry>
        </mxCell>
        <mxCell id="sUiPD8prjaH3CzhAGNYn-1" value="" style="shape=waypoint;sketch=0;size=6;pointerEvents=1;points=[];fillColor=none;resizable=0;rotatable=0;perimeter=centerPerimeter;snapToPoint=1;strokeColor=light-dark(#000000,#FF8000);fontFamily=Garamond;" parent="1" vertex="1">
          <mxGeometry x="97.5" y="135" width="20" height="20" as="geometry" />
        </mxCell>
        <mxCell id="sUiPD8prjaH3CzhAGNYn-18" value="P&lt;sub&gt;x&lt;/sub&gt;" style="text;html=1;align=center;verticalAlign=middle;resizable=0;points=[];autosize=1;strokeColor=none;fillColor=none;fontColor=light-dark(#000000,#FF3333);fontFamily=Garamond;" parent="1" vertex="1">
          <mxGeometry x="97.5" y="164" width="40" height="30" as="geometry" />
        </mxCell>
        <mxCell id="sUiPD8prjaH3CzhAGNYn-19" value="&lt;span style=&quot;color: light-dark(rgb(0, 0, 0), rgb(255, 153, 51));&quot;&gt;P&lt;/span&gt;" style="text;html=1;align=center;verticalAlign=middle;resizable=0;points=[];autosize=1;strokeColor=none;fillColor=none;fontFamily=Garamond;" parent="1" vertex="1">
          <mxGeometry x="92.5" y="118" width="30" height="30" as="geometry" />
        </mxCell>
        <mxCell id="sUiPD8prjaH3CzhAGNYn-20" value="&lt;span style=&quot;color: light-dark(rgb(0, 0, 0), rgb(255, 153, 51));&quot;&gt;&lt;span style=&quot;color: light-dark(rgb(0, 0, 0), rgb(255, 153, 51));&quot;&gt;P&lt;/span&gt;&#39;&lt;/span&gt;" style="text;html=1;align=center;verticalAlign=middle;resizable=0;points=[];autosize=1;strokeColor=none;fillColor=none;fontFamily=Garamond;" parent="1" vertex="1">
          <mxGeometry x="311" y="154" width="30" height="30" as="geometry" />
        </mxCell>
        <mxCell id="sUiPD8prjaH3CzhAGNYn-22" value="" style="endArrow=none;html=1;rounded=0;startArrow=open;startFill=0;entryX=1;entryY=0.5;entryDx=0;entryDy=0;dashed=1;strokeColor=light-dark(#000000,#FF3333);fontFamily=Garamond;" parent="1" edge="1">
          <mxGeometry width="50" height="50" relative="1" as="geometry">
            <mxPoint x="108" y="212.39" as="sourcePoint" />
            <mxPoint x="527.5" y="212.5" as="targetPoint" />
          </mxGeometry>
        </mxCell>
        <mxCell id="sUiPD8prjaH3CzhAGNYn-23" value="P&lt;sub&gt;z&lt;/sub&gt;" style="text;html=1;align=center;verticalAlign=middle;resizable=0;points=[];autosize=1;strokeColor=none;fillColor=none;fontColor=light-dark(#000000,#FF3333);fontFamily=Garamond;" parent="1" vertex="1">
          <mxGeometry x="260" y="207.29999999999995" width="40" height="30" as="geometry" />
        </mxCell>
        <mxCell id="sUiPD8prjaH3CzhAGNYn-27" value="" style="verticalLabelPosition=bottom;verticalAlign=top;html=1;shape=mxgraph.basic.orthogonal_triangle;fillColor=#fad7ac;strokeColor=none;fontFamily=Garamond;" parent="1" vertex="1">
          <mxGeometry x="319" y="180" width="202" height="32" as="geometry" />
        </mxCell>
        <mxCell id="sUiPD8prjaH3CzhAGNYn-24" value="" style="endArrow=none;html=1;rounded=0;strokeColor=light-dark(#000000,#FF3333);startArrow=none;startFill=0;endFill=0;fontFamily=Garamond;" parent="1" edge="1">
          <mxGeometry width="50" height="50" relative="1" as="geometry">
            <mxPoint x="319" y="213" as="sourcePoint" />
            <mxPoint x="319.25" y="179.10000000000002" as="targetPoint" />
          </mxGeometry>
        </mxCell>
        <mxCell id="sUiPD8prjaH3CzhAGNYn-25" value="P&#39;&lt;sub&gt;x&lt;/sub&gt;" style="text;html=1;align=center;verticalAlign=middle;resizable=0;points=[];autosize=1;strokeColor=none;fillColor=none;fontColor=light-dark(#000000,#FF3333);fontFamily=Garamond;" parent="1" vertex="1">
          <mxGeometry x="309" y="182" width="40" height="30" as="geometry" />
        </mxCell>
        <mxCell id="sUiPD8prjaH3CzhAGNYn-3" value="" style="shape=waypoint;sketch=0;size=6;pointerEvents=1;points=[];fillColor=none;resizable=0;rotatable=0;perimeter=centerPerimeter;snapToPoint=1;strokeColor=light-dark(#000000,#FF9933);fontFamily=Garamond;" parent="1" vertex="1">
          <mxGeometry x="309" y="169" width="20" height="20" as="geometry" />
        </mxCell>
        <mxCell id="0T9gvnzy7SkM7xsGGsrt-34" value="1(&lt;span style=&quot;color: light-dark(rgb(0, 0, 0), rgb(255, 51, 51));&quot;&gt;P&#39;&lt;sub&gt;z&lt;/sub&gt;&lt;/span&gt;)" style="endArrow=openThin;startArrow=openThin;html=1;rounded=0;entryX=1;entryY=0.5;entryDx=0;entryDy=0;startFill=0;endFill=0;verticalAlign=top;labelBackgroundColor=none;fontFamily=Garamond;" parent="1" edge="1">
          <mxGeometry x="-0.0467" y="2" width="50" height="50" relative="1" as="geometry">
            <mxPoint x="323" y="212.36" as="sourcePoint" />
            <mxPoint x="526.5000000000002" y="212.56000000000006" as="targetPoint" />
            <Array as="points">
              <mxPoint x="427.5" y="212.36" />
            </Array>
            <mxPoint as="offset" />
          </mxGeometry>
        </mxCell>
        <mxCell id="sUiPD8prjaH3CzhAGNYn-29" value="E" style="text;html=1;align=center;verticalAlign=middle;resizable=0;points=[];autosize=1;strokeColor=none;fillColor=none;fontSize=9;fontFamily=Garamond;" parent="1" vertex="1">
          <mxGeometry x="84" y="136" width="30" height="20" as="geometry" />
        </mxCell>
        <mxCell id="sUiPD8prjaH3CzhAGNYn-30" value="D" style="text;html=1;align=center;verticalAlign=middle;resizable=0;points=[];autosize=1;strokeColor=none;fillColor=none;fontSize=9;fontFamily=Garamond;" parent="1" vertex="1">
          <mxGeometry x="84" y="208" width="30" height="20" as="geometry" />
        </mxCell>
        <mxCell id="sUiPD8prjaH3CzhAGNYn-31" value="A" style="text;html=1;align=center;verticalAlign=middle;resizable=0;points=[];autosize=1;strokeColor=none;fillColor=none;fontSize=9;fontFamily=Garamond;" parent="1" vertex="1">
          <mxGeometry x="518" y="202.29999999999995" width="30" height="20" as="geometry" />
        </mxCell>
        <mxCell id="sUiPD8prjaH3CzhAGNYn-32" value="C" style="text;html=1;align=center;verticalAlign=middle;resizable=0;points=[];autosize=1;strokeColor=none;fillColor=none;fontSize=9;fontFamily=Garamond;" parent="1" vertex="1">
          <mxGeometry x="310" y="174" width="30" height="20" as="geometry" />
        </mxCell>
        <mxCell id="sUiPD8prjaH3CzhAGNYn-33" value="B" style="text;html=1;align=center;verticalAlign=middle;resizable=0;points=[];autosize=1;strokeColor=none;fillColor=none;fontSize=9;fontFamily=Garamond;" parent="1" vertex="1">
          <mxGeometry x="310" y="212.29999999999995" width="30" height="20" as="geometry" />
        </mxCell>
        <mxCell id="sUiPD8prjaH3CzhAGNYn-35" style="edgeStyle=orthogonalEdgeStyle;rounded=0;orthogonalLoop=1;jettySize=auto;html=1;fontFamily=Garamond;" parent="1" source="sUiPD8prjaH3CzhAGNYn-34" edge="1">
          <mxGeometry relative="1" as="geometry">
            <mxPoint x="533" y="200" as="targetPoint" />
          </mxGeometry>
        </mxCell>
        <mxCell id="sUiPD8prjaH3CzhAGNYn-34" value="&lt;font style=&quot;font-size: 9px;&quot;&gt;Origin&lt;/font&gt;" style="text;html=1;align=center;verticalAlign=middle;resizable=0;points=[];autosize=1;strokeColor=none;fillColor=none;fontFamily=Garamond;" parent="1" vertex="1">
          <mxGeometry x="508" y="148" width="50" height="30" as="geometry" />
        </mxCell>
        <mxCell id="sUiPD8prjaH3CzhAGNYn-36" style="edgeStyle=orthogonalEdgeStyle;rounded=0;orthogonalLoop=1;jettySize=auto;html=1;fontFamily=Garamond;" parent="1" edge="1">
          <mxGeometry relative="1" as="geometry">
            <mxPoint x="420" y="240" as="targetPoint" />
            <mxPoint x="419.75" y="260" as="sourcePoint" />
          </mxGeometry>
        </mxCell>
        <mxCell id="sUiPD8prjaH3CzhAGNYn-37" value="&lt;font style=&quot;font-size: 8px;&quot;&gt;FOV Factor&lt;/font&gt;" style="text;html=1;align=center;verticalAlign=middle;resizable=0;points=[];autosize=1;strokeColor=none;fillColor=none;fontFamily=Garamond;" parent="1" vertex="1">
          <mxGeometry x="385" y="250" width="70" height="30" as="geometry" />
        </mxCell>
      </root>
    </mxGraphModel>
  </diagram>
</mxfile>
